# xmcd
#
# Track frame offsets:
#	150
#	111843
#	122798
#	162988
#
# Disc length: 2864 seconds
#
# Revision: 1
# Processed by: cddbd v1.5.2PL0 Copyright (c) Steve Scherf et al.
# Submitted via: audiograbber 1.83.01
#
DISCID=2f0b2e04
DTITLE=Grateful Dead - 69-03-28 Modesto Jr College, Modesto CA
DYEAR=1900
DGENRE=
TTITLE0=Turn On Your Lovelight
TTITLE1=Cryptical Envelopment
TTITLE2=The Other One
TTITLE3=Cryptical Envelopment
EXTD=
EXTT0=
EXTT1=
EXTT2=
EXTT3=
PLAYORDER=
